<?xml version="1.0" encoding="UTF-8"?> <svg xmlns="http://www.w3.org/2000/svg" width="900" height="600" viewBox="0 0 900 600" fill="none"><g clip-path="url(#clip0)"><path fill-rule="evenodd" clip-rule="evenodd" d="M214.051 386.187C217.218 377.702 220.601 369.327 224.201 361.065C272.263 420.557 324.801 452.034 378.638 475.573C328.262 438.402 286.463 394.511 243.507 349.635C230.697 336.277 243.913 304.78 259.037 293.807C336.362 237.513 390.676 161.739 451.487 107.433C485.521 76.9818 515.434 74.5456 557.578 64.1312C576.864 63.4815 593.683 65.9989 601.935 79.1235C606.817 86.3203 608.725 93.4967 606.949 100.704C580.497 135.449 553 140.778 615.364 124.902C623.717 123.603 643.145 153.324 642.881 160.5C639.836 185.044 656.747 184.131 656.006 194.819C657.711 201.793 655.701 207.619 649.753 212.319C624.885 234.559 608.928 252.535 609.751 266.056C618.277 261.346 625.047 272.857 625.991 280.937C625.362 287.849 627.057 295.015 626.428 301.928C621.376 308.233 615.819 314.117 609.812 319.519C610.238 320.595 610.654 321.671 611.07 322.736C635.035 302.039 633.908 304.242 657.873 283.535C664.979 278.46 669.536 286.215 673.505 297.127C670.064 307.277 667.75 307.206 672.256 316.545C690.74 332.999 687.228 344.865 680.975 345.311C661.598 358.7 649.773 367.257 630.366 380.696C631.185 382.916 631.88 385.179 632.447 387.477C632.904 389.902 626.072 395.922 619.779 400.672C575.411 434.418 529.277 465.777 481.572 494.615C469.859 517.089 446.462 530.833 424.873 536.02C327.42 509.608 211.28 415.208 214.051 386.187Z" fill="#0066A5"></path><path d="M564.196 362.811C568.89 363.398 573.259 365.521 576.62 368.851C579.33 371.551 581.999 377.144 580.781 385.782C579.766 392.826 577.503 398.896 572.418 402.652C569.981 404.503 567.178 405.814 564.196 406.499V410.133C572.499 408.692 577.97 405.281 580.781 402.825C586.399 397.955 590.071 391.223 591.125 383.863C592.261 375.743 589.957 370.12 586.933 366.608C581.411 360.121 572.194 359.066 564.196 358.893V362.811ZM550.442 377.479C551.203 372.119 551.995 366.516 552.401 364.192C552.404 363.879 552.511 363.576 552.706 363.331C552.901 363.087 553.173 362.914 553.477 362.842C554.906 362.48 556.378 362.316 557.852 362.354C559.975 362.336 562.097 362.488 564.196 362.811V358.863C562.643 358.863 561.151 358.863 559.709 358.863C555.467 358.863 550.402 359.035 548.25 359.035C546.22 359.035 541.794 358.863 538.099 358.863C537.084 358.863 536.485 359.035 536.404 359.502C536.323 359.969 536.8 360.233 537.501 360.233C538.431 360.204 539.361 360.286 540.272 360.477C542.413 361.116 542.951 361.827 542.809 364.151C542.576 366.303 542.291 368.211 540.86 378.534L539.165 390.532C538.292 396.765 537.531 402.124 536.81 405.007C536.293 407.037 535.704 408.276 534.212 408.6C533.388 408.777 532.547 408.859 531.705 408.844C531.429 408.835 531.156 408.887 530.903 408.996V410.133C531.174 410.223 531.459 410.268 531.745 410.265C533.187 410.265 534.953 410.164 536.638 410.092C538.323 410.021 539.866 410.011 540.698 410.011C542.454 410.011 545.002 410.164 547.803 410.407C550.605 410.651 553.589 410.803 556.147 410.803C558.868 410.813 561.584 410.589 564.267 410.133V406.499C561.709 407.074 559.092 407.339 556.471 407.291C550.96 407.291 548.351 405.86 547.681 404.571C547.214 403.85 547.387 401.454 547.549 399.769C547.671 398.419 548.29 393.222 549.326 386.026L550.513 377.479H550.442ZM530.923 384.097V374.424C531.474 377.355 531.519 380.359 531.055 383.305L530.923 384.097ZM530.923 374.424V384.097C528.619 398.105 517.454 409.25 501.761 410.925V407.433C507.029 407.189 517.636 404.246 520.225 385.782C522.356 370.749 514.622 361.471 503.253 361.471C502.766 361.471 502.238 361.471 501.761 361.522V358.081C503.11 357.941 504.465 357.873 505.821 357.878C519.92 357.878 528.893 364.08 530.893 374.424H530.923ZM530.923 408.935C530.812 408.986 530.715 409.066 530.644 409.165C530.573 409.265 530.529 409.382 530.517 409.504C530.504 409.57 530.504 409.638 530.517 409.704C530.531 409.77 530.557 409.833 530.595 409.888C530.632 409.944 530.681 409.992 530.737 410.028C530.794 410.065 530.857 410.09 530.923 410.103V408.935ZM501.761 358.051V361.492C494.23 362.03 485.521 366.668 483.277 382.392C481.308 396.379 487.764 407.413 501.03 407.413H501.761V410.905C500.392 411.049 499.017 411.12 497.64 411.118C477.177 411.118 470.904 396.562 472.599 384.483C474.112 373.662 483.186 359.827 501.761 358.091V358.051ZM439.662 410.925C455.628 409.209 466.925 397.729 468.955 383.305C471.148 367.714 461.485 357.878 443.742 357.878C442.386 357.873 441.031 357.94 439.682 358.081V361.522C440.169 361.522 440.697 361.471 441.164 361.471C452.532 361.471 460.267 370.749 458.145 385.782C455.547 404.246 444.95 407.189 439.682 407.433L439.662 410.925ZM439.662 358.081V361.522C432.12 362.06 423.421 366.699 421.168 382.422C419.209 396.41 425.664 407.443 438.931 407.443H439.662V410.935C438.289 411.078 436.91 411.149 435.53 411.148C418.275 411.148 411.17 400.825 410.307 390.36V386.178C410.307 385.62 410.418 385.061 410.49 384.503C412.002 373.683 421.076 359.847 439.662 358.112V358.081ZM410.226 350.184V349.402C410.307 349.547 410.332 349.717 410.297 349.879C410.317 349.971 410.287 350.072 410.226 350.184ZM410.226 349.402V350.184C409.806 351.263 409.447 352.364 409.15 353.483C408.957 354.275 408.135 359.005 407.83 359.969C407.668 360.578 407.455 361.086 406.815 361.086C406.176 361.086 406.166 360.68 406.216 359.797C406.401 358.788 406.38 357.752 406.155 356.751C405.76 355.655 404.247 354.468 401.222 354.376L388.94 354.133C388.463 354.133 388.189 354.376 388.067 355.249L385.266 375.236C385.195 375.723 385.266 375.956 385.702 375.956L395.954 375.875C397.325 375.875 398.431 375.875 399.558 375.794C400.233 375.824 400.907 375.712 401.537 375.466C402.166 375.219 402.737 374.844 403.212 374.363C403.669 373.886 403.882 373.571 404.359 373.571C404.673 373.571 404.805 373.794 404.744 374.271C404.684 374.748 403.983 376.748 403.394 379.245C403.009 380.839 402.379 384.513 402.258 385.071C402.156 385.792 402.034 386.584 401.243 386.584C400.766 386.584 400.694 386.036 400.766 385.488C400.846 384.653 400.798 383.811 400.623 382.991C400.37 381.874 399.385 380.443 396.959 380.128C394.99 379.884 386.514 379.884 385.144 379.884C384.748 379.884 384.586 380.027 384.484 380.585L383.591 387.071C382.515 394.755 381.673 400.744 381.561 404.104C381.47 406.438 381.703 408.164 384.078 408.499C385.38 408.689 386.692 408.797 388.007 408.824C389.022 408.824 389.346 409.067 389.286 409.463C389.204 410.021 388.616 410.275 387.418 410.275C382.343 410.275 377.369 410.021 375.237 410.021C373.106 410.021 368.132 410.275 365.087 410.275C363.96 410.275 363.423 410.103 363.514 409.463C363.575 409.067 363.92 408.824 364.803 408.824C365.786 408.823 366.767 408.714 367.726 408.499C369.381 408.184 370.02 406.469 370.67 404.104C371.543 400.744 372.375 394.755 373.451 387.071L375.481 373.002C377.176 360.822 377.511 358.599 377.694 356.051C377.917 353.321 377.46 352.042 374.903 351.504C373.898 351.32 372.878 351.238 371.857 351.26C371.045 351.26 370.507 351.098 370.599 350.62C370.67 349.961 371.34 349.819 372.538 349.819C374.568 349.819 376.933 349.89 379.013 349.89C381.094 349.89 382.911 350.052 384.018 350.052C387.063 350.052 403.303 350.052 405.14 349.961C406.255 349.978 407.368 349.872 408.459 349.646C408.885 349.433 409.335 349.273 409.799 349.169C409.881 349.17 409.961 349.194 410.031 349.237C410.1 349.279 410.157 349.34 410.195 349.413L410.226 349.402ZM410.226 386.178C410.124 387.567 410.124 388.961 410.226 390.35V386.178Z" fill="white"></path><path d="M535.187 316.748C538.881 296.599 543.307 270.543 545.916 254.474C547.763 243.167 555.558 243.451 560.766 243.451H572.997L559.659 321.214C573.129 320.605 589.998 322.118 600.088 319.397C599.55 322.442 598.586 327.365 598.058 330.441C597.581 334.745 594.85 340.744 582.913 340.368C567.028 339.901 551.092 340.287 535.207 340.368V316.748H535.187ZM535.187 270.106C537.217 257.926 538.973 247.775 539.846 243.451H535.187V270.106ZM530.558 340.368C531.725 335.181 533.39 326.685 535.187 316.748V340.358L530.558 340.368ZM535.187 243.451H511.141C505.152 243.745 500.087 243.116 494.311 254.068C485.917 270.035 469.788 303.197 466.053 307.866C464.672 299.614 457.699 256.88 456.532 243.431H432.435C426.68 243.431 419.605 244.05 418.326 253.033C415.037 276.146 406.369 320.483 402.106 337.049C393.103 327.528 379.4 305.349 372.477 295.686C368.234 289.748 368.234 292.712 374.172 286.926C385.815 275.588 408.105 249.643 417.24 243.603H397.142C392.554 243.603 385.977 241.147 376.212 253.581C367.209 265.082 353.597 276.927 343.731 282.906C346.157 268.807 348.319 257.043 353.537 243.603H333.084C330.201 243.603 323.634 243.603 323.075 251.977C321.259 278.694 313.534 316.575 306.835 340.521H325.928C329.206 340.521 336.464 342.551 337.215 329.416C337.993 318.284 339.407 307.205 341.448 296.234C347.538 301.735 354.917 314.078 360.479 324.757C369.31 341.657 372.051 340.399 383.734 340.378H413.17C425.178 340.378 427.685 335.567 428.588 328.462C431.146 308.475 435.866 279.962 440.19 265.955C443.915 285.068 450.756 328.025 451.03 340.378H463.921C473.29 341.292 476.295 334.877 479.005 328.949C487.531 310.201 504.594 278.034 512.217 265.955H512.491C509.811 282.317 501.092 330.482 499.295 340.378H512.744C517.15 340.378 523.554 342.601 525.859 328.015C528.092 313.713 532.03 289.392 535.227 270.157L535.187 243.451Z" fill="white"></path><path d="M649.063 257.215C649.86 257.228 650.656 257.157 651.438 257.002C651.85 256.849 652.205 256.573 652.453 256.21C652.724 255.787 652.862 255.292 652.849 254.789C652.888 254.236 652.708 253.691 652.347 253.27C651.985 252.85 651.473 252.59 650.921 252.546C650.667 252.546 650.048 252.485 649.033 252.485V249.318H649.378C650.853 249.254 652.329 249.422 653.753 249.815C654.651 250.16 655.411 250.791 655.915 251.612C656.461 252.499 656.743 253.524 656.727 254.566C656.766 255.831 656.332 257.066 655.509 258.027C654.519 259.027 653.206 259.642 651.804 259.763C652.555 260.179 653.239 260.706 653.834 261.326C654.637 262.278 655.357 263.296 655.986 264.371L658.269 268.025H653.753L651.042 263.965C650.424 263.006 649.746 262.088 649.012 261.214V257.245L649.063 257.215ZM649.063 278.003C654.02 277.93 658.754 275.927 662.259 272.421C664.911 269.769 666.724 266.395 667.47 262.719C668.217 259.043 667.864 255.229 666.457 251.753C665.05 248.276 662.649 245.291 659.556 243.17C656.463 241.05 652.813 239.887 649.063 239.827V243.887C652.96 243.956 656.677 245.54 659.427 248.303C661.513 250.395 662.939 253.054 663.528 255.949C664.116 258.844 663.842 261.849 662.738 264.589C661.634 267.33 659.75 269.686 657.319 271.365C654.888 273.044 652.017 273.972 649.063 274.034V278.003ZM645.236 257.235H648.058H649.073V261.204C648.757 260.862 648.369 260.595 647.936 260.423C647.31 260.262 646.664 260.194 646.018 260.22H645.247V268.025H641.45V249.318H649.063V252.485H645.236V257.245V257.235ZM649.063 239.827H648.759C646.254 239.825 643.774 240.318 641.46 241.278C639.147 242.238 637.046 243.645 635.279 245.42C632.61 248.089 630.793 251.489 630.055 255.191C629.318 258.892 629.694 262.73 631.137 266.217C632.579 269.705 635.023 272.687 638.16 274.787C641.296 276.886 644.984 278.009 648.759 278.013H649.063V274.014H648.759C645.775 274.019 642.858 273.137 640.376 271.482C637.894 269.826 635.96 267.471 634.819 264.715C633.677 261.959 633.38 258.926 633.964 256C634.548 253.075 635.988 250.389 638.101 248.283C639.501 246.885 641.163 245.778 642.992 245.023C644.821 244.269 646.78 243.883 648.759 243.887H649.063V239.827Z" fill="#0066A5"></path></g><defs><clipPath id="clip0"><rect width="472" height="472" fill="white" transform="translate(214 64)"></rect></clipPath></defs></svg> 